<svg id="Layer_1" enable-background="new 0 0 512 512" height="512" viewBox="0 0 512 512" width="512" xmlns="http://www.w3.org/2000/svg"><path d="m133.708 143.358 51.467 50.988c-12.092.74-21.671 10.788-21.671 23.076 0 12.769 10.343 23.12 23.102 23.12h138.787c12.759 0 23.102-10.351 23.102-23.12 0-12.769-10.343-23.12-23.102-23.12h-3.74l56.643-50.944c11.234-10.252 17.67-24.855 17.67-40.078v-95.779c0-4.141-3.358-7.501-7.496-7.501h-54.099c-4.138 0-7.496 3.361-7.496 7.501v88.187h-36.329v-88.187c0-4.141-3.358-7.501-7.496-7.501h-54.099c-4.148 0-7.496 3.361-7.496 7.501v88.187h-36.339v-88.187c0-4.141-3.348-7.501-7.496-7.501h-54.099c-4.138 0-7.496 3.361-7.496 7.501v95.778c.003 15.224 6.449 29.827 17.683 40.079z"/><path d="m402.822 439.589h-293.644c-19.98 0-36.178 16.21-36.178 36.206 0 19.995 16.197 36.205 36.178 36.205h293.644c19.98 0 36.178-16.21 36.178-36.206 0-19.996-16.197-36.205-36.178-36.205z"/><path d="m325.368 270.543h-138.79c-8.535 0-16.601-2.02-23.756-5.621l-45.565 144.658h277.431l-45.804-144.538c-7.086 3.52-15.071 5.501-23.516 5.501z"/></svg>